<svg width="41" height="40" viewBox="0 0 41 40" fill="none" xmlns="http://www.w3.org/2000/svg">
<g id="DiamondsFour">
<path id="Vector" d="M13.5784 11.0347C13.3357 10.7921 13.1432 10.504 13.0119 10.187C12.8805 9.86998 12.8129 9.53018 12.8129 9.18702C12.8129 8.84386 12.8805 8.50407 13.0119 8.18704C13.1432 7.87001 13.3357 7.58197 13.5784 7.33937L18.1519 2.76437C18.6425 2.27489 19.3073 2 20.0003 2C20.6933 2 21.3581 2.27489 21.8487 2.76437L26.4222 7.33937C26.6649 7.58197 26.8574 7.87001 26.9887 8.18704C27.1201 8.50407 27.1877 8.84386 27.1877 9.18702C27.1877 9.53018 27.1201 9.86998 26.9887 10.187C26.8574 10.504 26.6649 10.7921 26.4222 11.0347L21.8487 15.6097C21.3581 16.0992 20.6933 16.374 20.0003 16.374C19.3073 16.374 18.6425 16.0992 18.1519 15.6097L13.5784 11.0347ZM36.7362 17.6519L32.1612 13.0769C31.6709 12.5875 31.0064 12.3126 30.3136 12.3126C29.6208 12.3126 28.9563 12.5875 28.4659 13.0769L23.8909 17.6519C23.4014 18.1425 23.1266 18.8073 23.1266 19.5003C23.1266 20.1933 23.4014 20.8581 23.8909 21.3487L28.4659 25.9237C28.9563 26.4131 29.6208 26.688 30.3136 26.688C31.0064 26.688 31.6709 26.4131 32.1612 25.9237L36.7362 21.3487C37.2257 20.8581 37.5006 20.1933 37.5006 19.5003C37.5006 18.8073 37.2257 18.1425 36.7362 17.6519ZM16.1112 17.6519L11.5347 13.0769C11.0443 12.5875 10.3798 12.3126 9.68702 12.3126C8.99423 12.3126 8.32974 12.5875 7.83937 13.0769L3.26437 17.6519C2.77489 18.1425 2.5 18.8073 2.5 19.5003C2.5 20.1933 2.77489 20.8581 3.26437 21.3487L7.83937 25.9237C8.32974 26.4131 8.99423 26.688 9.68702 26.688C10.3798 26.688 11.0443 26.4131 11.5347 25.9237L16.1097 21.3487C16.5992 20.8581 16.874 20.1933 16.874 19.5003C16.874 18.8073 16.5992 18.1425 16.1097 17.6519H16.1112ZM21.8503 23.3909C21.3597 22.9014 20.6949 22.6266 20.0019 22.6266C19.3088 22.6266 18.6441 22.9014 18.1534 23.3909L13.5784 27.9659C13.3357 28.2085 13.1432 28.4966 13.0119 28.8136C12.8805 29.1306 12.8129 29.4704 12.8129 29.8136C12.8129 30.1567 12.8805 30.4965 13.0119 30.8136C13.1432 31.1306 13.3357 31.4186 13.5784 31.6612L18.1519 36.2362C18.6425 36.7257 19.3073 37.0006 20.0003 37.0006C20.6933 37.0006 21.3581 36.7257 21.8487 36.2362L26.4222 31.6612C26.6649 31.4186 26.8574 31.1306 26.9887 30.8136C27.1201 30.4965 27.1877 30.1567 27.1877 29.8136C27.1877 29.4704 27.1201 29.1306 26.9887 28.8136C26.8574 28.4966 26.6649 28.2085 26.4222 27.9659L21.8503 23.3909Z" fill="#6952BC"/>
</g>
</svg>
