<svg width="153" height="75" viewBox="0 0 153 75" fill="none" xmlns="http://www.w3.org/2000/svg">
<g id="Group 17">
<circle id="Ellipse 6" cx="2.75879" cy="2.12207" r="2" fill="#F9FBFF" fill-opacity="0.2"/>
<circle id="Ellipse 21" cx="2.75879" cy="13.9316" r="2" fill="#F9FBFF" fill-opacity="0.2"/>
<circle id="Ellipse 36" cx="2.75879" cy="25.7402" r="2" fill="#F9FBFF" fill-opacity="0.2"/>
<circle id="Ellipse 51" cx="2.75879" cy="37.5488" r="2" fill="#F9FBFF" fill-opacity="0.2"/>
<circle id="Ellipse 66" cx="2.75879" cy="49.3584" r="2" fill="#F9FBFF" fill-opacity="0.2"/>
<circle id="Ellipse 81" cx="2.75879" cy="61.168" r="2" fill="#F9FBFF" fill-opacity="0.2"/>
<circle id="Ellipse 96" cx="2.75879" cy="72.9766" r="2" fill="#F9FBFF" fill-opacity="0.2"/>
<circle id="Ellipse 7" cx="13.3027" cy="2.12207" r="2" fill="#F9FBFF" fill-opacity="0.2"/>
<circle id="Ellipse 22" cx="13.3027" cy="13.9316" r="2" fill="#F9FBFF" fill-opacity="0.2"/>
<circle id="Ellipse 37" cx="13.3027" cy="25.7402" r="2" fill="#F9FBFF" fill-opacity="0.2"/>
<circle id="Ellipse 52" cx="13.3027" cy="37.5488" r="2" fill="#F9FBFF" fill-opacity="0.2"/>
<circle id="Ellipse 67" cx="13.3027" cy="49.3584" r="2" fill="#F9FBFF" fill-opacity="0.2"/>
<circle id="Ellipse 82" cx="13.3027" cy="61.168" r="2" fill="#F9FBFF" fill-opacity="0.2"/>
<circle id="Ellipse 97" cx="13.3027" cy="72.9766" r="2" fill="#F9FBFF" fill-opacity="0.2"/>
<circle id="Ellipse 8" cx="23.8457" cy="2.12207" r="2" fill="#F9FBFF" fill-opacity="0.2"/>
<circle id="Ellipse 23" cx="23.8457" cy="13.9316" r="2" fill="#F9FBFF" fill-opacity="0.2"/>
<circle id="Ellipse 38" cx="23.8457" cy="25.7402" r="2" fill="#F9FBFF" fill-opacity="0.2"/>
<circle id="Ellipse 53" cx="23.8457" cy="37.5488" r="2" fill="#F9FBFF" fill-opacity="0.2"/>
<circle id="Ellipse 68" cx="23.8457" cy="49.3584" r="2" fill="#F9FBFF" fill-opacity="0.2"/>
<circle id="Ellipse 83" cx="23.8457" cy="61.168" r="2" fill="#F9FBFF" fill-opacity="0.2"/>
<circle id="Ellipse 98" cx="23.8457" cy="72.9766" r="2" fill="#F9FBFF" fill-opacity="0.2"/>
<circle id="Ellipse 9" cx="34.3896" cy="2.12207" r="2" fill="#F9FBFF" fill-opacity="0.2"/>
<circle id="Ellipse 24" cx="34.3896" cy="13.9316" r="2" fill="#F9FBFF" fill-opacity="0.2"/>
<circle id="Ellipse 39" cx="34.3896" cy="25.7402" r="2" fill="#F9FBFF" fill-opacity="0.2"/>
<circle id="Ellipse 54" cx="34.3896" cy="37.5488" r="2" fill="#F9FBFF" fill-opacity="0.2"/>
<circle id="Ellipse 69" cx="34.3896" cy="49.3584" r="2" fill="#F9FBFF" fill-opacity="0.2"/>
<circle id="Ellipse 84" cx="34.3896" cy="61.168" r="2" fill="#F9FBFF" fill-opacity="0.2"/>
<circle id="Ellipse 99" cx="34.3896" cy="72.9766" r="2" fill="#F9FBFF" fill-opacity="0.2"/>
<circle id="Ellipse 10" cx="44.9336" cy="2.12207" r="2" fill="#F9FBFF" fill-opacity="0.2"/>
<circle id="Ellipse 25" cx="44.9336" cy="13.9316" r="2" fill="#F9FBFF" fill-opacity="0.2"/>
<circle id="Ellipse 40" cx="44.9336" cy="25.7402" r="2" fill="#F9FBFF" fill-opacity="0.2"/>
<circle id="Ellipse 55" cx="44.9336" cy="37.5488" r="2" fill="#F9FBFF" fill-opacity="0.2"/>
<circle id="Ellipse 70" cx="44.9336" cy="49.3584" r="2" fill="#F9FBFF" fill-opacity="0.2"/>
<circle id="Ellipse 85" cx="44.9336" cy="61.168" r="2" fill="#F9FBFF" fill-opacity="0.2"/>
<circle id="Ellipse 100" cx="44.9336" cy="72.9766" r="2" fill="#F9FBFF" fill-opacity="0.2"/>
<circle id="Ellipse 11" cx="55.4775" cy="2.12207" r="2" fill="#F9FBFF" fill-opacity="0.2"/>
<circle id="Ellipse 26" cx="55.4775" cy="13.9316" r="2" fill="#F9FBFF" fill-opacity="0.2"/>
<circle id="Ellipse 41" cx="55.4775" cy="25.7402" r="2" fill="#F9FBFF" fill-opacity="0.2"/>
<circle id="Ellipse 56" cx="55.4775" cy="37.5488" r="2" fill="#F9FBFF" fill-opacity="0.2"/>
<circle id="Ellipse 71" cx="55.4775" cy="49.3584" r="2" fill="#F9FBFF" fill-opacity="0.2"/>
<circle id="Ellipse 86" cx="55.4775" cy="61.168" r="2" fill="#F9FBFF" fill-opacity="0.2"/>
<circle id="Ellipse 101" cx="55.4775" cy="72.9766" r="2" fill="#F9FBFF" fill-opacity="0.2"/>
<circle id="Ellipse 12" cx="66.0215" cy="2.12207" r="2" fill="#F9FBFF" fill-opacity="0.2"/>
<circle id="Ellipse 27" cx="66.0215" cy="13.9316" r="2" fill="#F9FBFF" fill-opacity="0.2"/>
<circle id="Ellipse 42" cx="66.0215" cy="25.7402" r="2" fill="#F9FBFF" fill-opacity="0.2"/>
<circle id="Ellipse 57" cx="66.0215" cy="37.5488" r="2" fill="#F9FBFF" fill-opacity="0.2"/>
<circle id="Ellipse 72" cx="66.0215" cy="49.3584" r="2" fill="#F9FBFF" fill-opacity="0.2"/>
<circle id="Ellipse 87" cx="66.0215" cy="61.168" r="2" fill="#F9FBFF" fill-opacity="0.2"/>
<circle id="Ellipse 102" cx="66.0215" cy="72.9766" r="2" fill="#F9FBFF" fill-opacity="0.2"/>
<circle id="Ellipse 13" cx="76.5645" cy="2.12207" r="2" fill="#F9FBFF" fill-opacity="0.2"/>
<circle id="Ellipse 28" cx="76.5645" cy="13.9316" r="2" fill="#F9FBFF" fill-opacity="0.2"/>
<circle id="Ellipse 43" cx="76.5645" cy="25.7402" r="2" fill="#F9FBFF" fill-opacity="0.2"/>
<circle id="Ellipse 58" cx="76.5645" cy="37.5488" r="2" fill="#F9FBFF" fill-opacity="0.2"/>
<circle id="Ellipse 73" cx="76.5645" cy="49.3584" r="2" fill="#F9FBFF" fill-opacity="0.2"/>
<circle id="Ellipse 88" cx="76.5645" cy="61.168" r="2" fill="#F9FBFF" fill-opacity="0.2"/>
<circle id="Ellipse 103" cx="76.5645" cy="72.9766" r="2" fill="#F9FBFF" fill-opacity="0.2"/>
<circle id="Ellipse 14" cx="87.1084" cy="2.12207" r="2" fill="#F9FBFF" fill-opacity="0.2"/>
<circle id="Ellipse 29" cx="87.1084" cy="13.9316" r="2" fill="#F9FBFF" fill-opacity="0.2"/>
<circle id="Ellipse 44" cx="87.1084" cy="25.7402" r="2" fill="#F9FBFF" fill-opacity="0.2"/>
<circle id="Ellipse 59" cx="87.1084" cy="37.5488" r="2" fill="#F9FBFF" fill-opacity="0.2"/>
<circle id="Ellipse 74" cx="87.1084" cy="49.3584" r="2" fill="#F9FBFF" fill-opacity="0.2"/>
<circle id="Ellipse 89" cx="87.1084" cy="61.168" r="2" fill="#F9FBFF" fill-opacity="0.2"/>
<circle id="Ellipse 104" cx="87.1084" cy="72.9766" r="2" fill="#F9FBFF" fill-opacity="0.2"/>
<circle id="Ellipse 15" cx="97.6523" cy="2.12207" r="2" fill="#F9FBFF" fill-opacity="0.2"/>
<circle id="Ellipse 30" cx="97.6523" cy="13.9316" r="2" fill="#F9FBFF" fill-opacity="0.2"/>
<circle id="Ellipse 45" cx="97.6523" cy="25.7402" r="2" fill="#F9FBFF" fill-opacity="0.2"/>
<circle id="Ellipse 60" cx="97.6523" cy="37.5488" r="2" fill="#F9FBFF" fill-opacity="0.2"/>
<circle id="Ellipse 75" cx="97.6523" cy="49.3584" r="2" fill="#F9FBFF" fill-opacity="0.2"/>
<circle id="Ellipse 90" cx="97.6523" cy="61.168" r="2" fill="#F9FBFF" fill-opacity="0.2"/>
<circle id="Ellipse 105" cx="97.6523" cy="72.9766" r="2" fill="#F9FBFF" fill-opacity="0.2"/>
<circle id="Ellipse 16" cx="108.195" cy="2.12207" r="2" fill="#F9FBFF" fill-opacity="0.2"/>
<circle id="Ellipse 31" cx="108.195" cy="13.9316" r="2" fill="#F9FBFF" fill-opacity="0.2"/>
<circle id="Ellipse 46" cx="108.195" cy="25.7402" r="2" fill="#F9FBFF" fill-opacity="0.2"/>
<circle id="Ellipse 61" cx="108.195" cy="37.5488" r="2" fill="#F9FBFF" fill-opacity="0.2"/>
<circle id="Ellipse 76" cx="108.195" cy="49.3584" r="2" fill="#F9FBFF" fill-opacity="0.2"/>
<circle id="Ellipse 91" cx="108.195" cy="61.168" r="2" fill="#F9FBFF" fill-opacity="0.2"/>
<circle id="Ellipse 106" cx="108.195" cy="72.9766" r="2" fill="#F9FBFF" fill-opacity="0.2"/>
<circle id="Ellipse 17" cx="118.739" cy="2.12207" r="2" fill="#F9FBFF" fill-opacity="0.2"/>
<circle id="Ellipse 32" cx="118.739" cy="13.9316" r="2" fill="#F9FBFF" fill-opacity="0.2"/>
<circle id="Ellipse 47" cx="118.739" cy="25.7402" r="2" fill="#F9FBFF" fill-opacity="0.2"/>
<circle id="Ellipse 62" cx="118.739" cy="37.5488" r="2" fill="#F9FBFF" fill-opacity="0.2"/>
<circle id="Ellipse 77" cx="118.739" cy="49.3584" r="2" fill="#F9FBFF" fill-opacity="0.2"/>
<circle id="Ellipse 92" cx="118.739" cy="61.168" r="2" fill="#F9FBFF" fill-opacity="0.2"/>
<circle id="Ellipse 107" cx="118.739" cy="72.9766" r="2" fill="#F9FBFF" fill-opacity="0.2"/>
<circle id="Ellipse 18" cx="129.283" cy="2.12207" r="2" fill="#F9FBFF" fill-opacity="0.2"/>
<circle id="Ellipse 33" cx="129.283" cy="13.9316" r="2" fill="#F9FBFF" fill-opacity="0.2"/>
<circle id="Ellipse 48" cx="129.283" cy="25.7402" r="2" fill="#F9FBFF" fill-opacity="0.2"/>
<circle id="Ellipse 63" cx="129.283" cy="37.5488" r="2" fill="#F9FBFF" fill-opacity="0.2"/>
<circle id="Ellipse 78" cx="129.283" cy="49.3584" r="2" fill="#F9FBFF" fill-opacity="0.2"/>
<circle id="Ellipse 93" cx="129.283" cy="61.168" r="2" fill="#F9FBFF" fill-opacity="0.2"/>
<circle id="Ellipse 108" cx="129.283" cy="72.9766" r="2" fill="#F9FBFF" fill-opacity="0.2"/>
<circle id="Ellipse 19" cx="139.827" cy="2.12207" r="2" fill="#F9FBFF" fill-opacity="0.2"/>
<circle id="Ellipse 34" cx="139.827" cy="13.9316" r="2" fill="#F9FBFF" fill-opacity="0.2"/>
<circle id="Ellipse 49" cx="139.827" cy="25.7402" r="2" fill="#F9FBFF" fill-opacity="0.2"/>
<circle id="Ellipse 64" cx="139.827" cy="37.5488" r="2" fill="#F9FBFF" fill-opacity="0.2"/>
<circle id="Ellipse 79" cx="139.827" cy="49.3584" r="2" fill="#F9FBFF" fill-opacity="0.2"/>
<circle id="Ellipse 94" cx="139.827" cy="61.168" r="2" fill="#F9FBFF" fill-opacity="0.2"/>
<circle id="Ellipse 109" cx="139.827" cy="72.9766" r="2" fill="#F9FBFF" fill-opacity="0.2"/>
<circle id="Ellipse 20" cx="150.371" cy="2.12207" r="2" fill="#F9FBFF" fill-opacity="0.2"/>
<circle id="Ellipse 35" cx="150.371" cy="13.9316" r="2" fill="#F9FBFF" fill-opacity="0.2"/>
<circle id="Ellipse 50" cx="150.371" cy="25.7402" r="2" fill="#F9FBFF" fill-opacity="0.2"/>
<circle id="Ellipse 65" cx="150.371" cy="37.5488" r="2" fill="#F9FBFF" fill-opacity="0.2"/>
<circle id="Ellipse 80" cx="150.371" cy="49.3584" r="2" fill="#F9FBFF" fill-opacity="0.2"/>
<circle id="Ellipse 95" cx="150.371" cy="61.168" r="2" fill="#F9FBFF" fill-opacity="0.2"/>
<circle id="Ellipse 110" cx="150.371" cy="72.9766" r="2" fill="#F9FBFF" fill-opacity="0.2"/>
</g>
</svg>
